<mxfile host="app.diagrams.net" agent="Mozilla/5.0 (X11; Linux x86_64; rv:135.0) Gecko/20100101 Firefox/135.0" version="26.1.1">
  <diagram name="Page-1" id="0_1LERUj_Su6B35XoExn">
    <mxGraphModel dx="1674" dy="809" grid="1" gridSize="10" guides="1" tooltips="1" connect="1" arrows="1" fold="1" page="1" pageScale="1" pageWidth="850" pageHeight="1100" math="0" shadow="0">
      <root>
        <mxCell id="0" />
        <mxCell id="1" parent="0" />
        <mxCell id="EdbwYUjkq_J6bJKf4-i6-1" value="&lt;div&gt;Backend&lt;/div&gt;" style="html=1;dropTarget=0;whiteSpace=wrap;verticalAlign=top;direction=east;rounded=0;shadow=0;glass=0;" parent="1" vertex="1">
          <mxGeometry x="340" y="80" width="480" height="470" as="geometry" />
        </mxCell>
        <mxCell id="EdbwYUjkq_J6bJKf4-i6-2" value="" style="shape=module;jettyWidth=8;jettyHeight=4;" parent="EdbwYUjkq_J6bJKf4-i6-1" vertex="1">
          <mxGeometry x="1" width="20" height="20" relative="1" as="geometry">
            <mxPoint x="-27" y="7" as="offset" />
          </mxGeometry>
        </mxCell>
        <mxCell id="8NqDNcjnTglQHzUcswUO-1" value="&lt;div&gt;Frontend&lt;/div&gt;" style="html=1;dropTarget=0;whiteSpace=wrap;verticalAlign=top;direction=east;rounded=0;shadow=0;glass=0;" parent="1" vertex="1">
          <mxGeometry x="40" y="260" width="160" height="120" as="geometry" />
        </mxCell>
        <mxCell id="8NqDNcjnTglQHzUcswUO-2" value="" style="shape=module;jettyWidth=8;jettyHeight=4;" parent="8NqDNcjnTglQHzUcswUO-1" vertex="1">
          <mxGeometry x="1" width="20" height="20" relative="1" as="geometry">
            <mxPoint x="-27" y="7" as="offset" />
          </mxGeometry>
        </mxCell>
        <mxCell id="iZyHk9PSECfGhulARrNF-7" value="" style="edgeStyle=orthogonalEdgeStyle;rounded=0;orthogonalLoop=1;jettySize=auto;html=1;endArrow=none;startFill=0;" parent="1" source="8NqDNcjnTglQHzUcswUO-3" target="iZyHk9PSECfGhulARrNF-1" edge="1">
          <mxGeometry relative="1" as="geometry" />
        </mxCell>
        <mxCell id="8NqDNcjnTglQHzUcswUO-3" value="DHCP" style="html=1;dropTarget=0;whiteSpace=wrap;verticalAlign=top;" parent="1" vertex="1">
          <mxGeometry x="550" y="275" width="180" height="90" as="geometry" />
        </mxCell>
        <mxCell id="8NqDNcjnTglQHzUcswUO-4" value="" style="shape=module;jettyWidth=8;jettyHeight=4;" parent="8NqDNcjnTglQHzUcswUO-3" vertex="1">
          <mxGeometry x="1" width="20" height="20" relative="1" as="geometry">
            <mxPoint x="-27" y="7" as="offset" />
          </mxGeometry>
        </mxCell>
        <mxCell id="8NqDNcjnTglQHzUcswUO-5" value="Datenbank" style="html=1;dropTarget=0;whiteSpace=wrap;verticalAlign=top;" parent="1" vertex="1">
          <mxGeometry x="550" y="420" width="180" height="90" as="geometry" />
        </mxCell>
        <mxCell id="8NqDNcjnTglQHzUcswUO-6" value="" style="shape=module;jettyWidth=8;jettyHeight=4;" parent="8NqDNcjnTglQHzUcswUO-5" vertex="1">
          <mxGeometry x="1" width="20" height="20" relative="1" as="geometry">
            <mxPoint x="-27" y="7" as="offset" />
          </mxGeometry>
        </mxCell>
        <mxCell id="8NqDNcjnTglQHzUcswUO-7" value="NetzwerkSniffer" style="html=1;dropTarget=0;whiteSpace=wrap;verticalAlign=top;" parent="1" vertex="1">
          <mxGeometry x="550" y="140" width="180" height="90" as="geometry" />
        </mxCell>
        <mxCell id="8NqDNcjnTglQHzUcswUO-8" value="" style="shape=module;jettyWidth=8;jettyHeight=4;" parent="8NqDNcjnTglQHzUcswUO-7" vertex="1">
          <mxGeometry x="1" width="20" height="20" relative="1" as="geometry">
            <mxPoint x="-27" y="7" as="offset" />
          </mxGeometry>
        </mxCell>
        <mxCell id="EdbwYUjkq_J6bJKf4-i6-6" value="" style="rounded=0;whiteSpace=wrap;html=1;" parent="1" vertex="1">
          <mxGeometry x="190" y="302.5" width="20" height="35" as="geometry" />
        </mxCell>
        <mxCell id="EdbwYUjkq_J6bJKf4-i6-21" value="" style="edgeStyle=elbowEdgeStyle;rounded=0;orthogonalLoop=1;jettySize=auto;html=1;endArrow=none;startFill=0;" parent="1" source="EdbwYUjkq_J6bJKf4-i6-9" target="EdbwYUjkq_J6bJKf4-i6-17" edge="1">
          <mxGeometry relative="1" as="geometry" />
        </mxCell>
        <mxCell id="iZyHk9PSECfGhulARrNF-3" style="edgeStyle=orthogonalEdgeStyle;rounded=0;orthogonalLoop=1;jettySize=auto;html=1;exitX=1;exitY=0.5;exitDx=0;exitDy=0;entryX=0;entryY=0.5;entryDx=0;entryDy=0;endArrow=none;startFill=0;" parent="1" source="EdbwYUjkq_J6bJKf4-i6-9" target="iZyHk9PSECfGhulARrNF-1" edge="1">
          <mxGeometry relative="1" as="geometry" />
        </mxCell>
        <mxCell id="EdbwYUjkq_J6bJKf4-i6-9" value="" style="rounded=0;whiteSpace=wrap;html=1;" parent="1" vertex="1">
          <mxGeometry x="320" y="300" width="20" height="40" as="geometry" />
        </mxCell>
        <mxCell id="EdbwYUjkq_J6bJKf4-i6-19" style="edgeStyle=orthogonalEdgeStyle;rounded=0;orthogonalLoop=1;jettySize=auto;html=1;exitX=1;exitY=0.5;exitDx=0;exitDy=0;exitPerimeter=0;entryX=1;entryY=0.5;entryDx=0;entryDy=0;endArrow=none;startFill=0;" parent="1" source="EdbwYUjkq_J6bJKf4-i6-17" target="EdbwYUjkq_J6bJKf4-i6-6" edge="1">
          <mxGeometry relative="1" as="geometry" />
        </mxCell>
        <mxCell id="EdbwYUjkq_J6bJKf4-i6-17" value="" style="shape=providedRequiredInterface;html=1;verticalLabelPosition=bottom;sketch=0;direction=west;" parent="1" vertex="1">
          <mxGeometry x="250" y="305" width="30" height="30" as="geometry" />
        </mxCell>
        <mxCell id="EdbwYUjkq_J6bJKf4-i6-27" style="edgeStyle=orthogonalEdgeStyle;rounded=0;orthogonalLoop=1;jettySize=auto;html=1;exitX=0;exitY=0.5;exitDx=0;exitDy=0;entryX=1;entryY=0.5;entryDx=0;entryDy=0;endArrow=open;endFill=0;dashed=1;dashPattern=8 8;" parent="1" source="EdbwYUjkq_J6bJKf4-i6-20" target="8NqDNcjnTglQHzUcswUO-5" edge="1">
          <mxGeometry relative="1" as="geometry" />
        </mxCell>
        <mxCell id="EdbwYUjkq_J6bJKf4-i6-20" value="«artefact»&lt;br&gt;&lt;b&gt;SQLite&lt;/b&gt;" style="html=1;whiteSpace=wrap;" parent="1" vertex="1">
          <mxGeometry x="880" y="440" width="110" height="50" as="geometry" />
        </mxCell>
        <mxCell id="iZyHk9PSECfGhulARrNF-1" value="API" style="html=1;dropTarget=0;whiteSpace=wrap;verticalAlign=top;" parent="1" vertex="1">
          <mxGeometry x="380" y="275" width="110" height="90" as="geometry" />
        </mxCell>
        <mxCell id="iZyHk9PSECfGhulARrNF-2" value="" style="shape=module;jettyWidth=8;jettyHeight=4;" parent="iZyHk9PSECfGhulARrNF-1" vertex="1">
          <mxGeometry x="1" width="20" height="20" relative="1" as="geometry">
            <mxPoint x="-27" y="7" as="offset" />
          </mxGeometry>
        </mxCell>
        <mxCell id="iZyHk9PSECfGhulARrNF-4" value="" style="endArrow=none;html=1;rounded=0;exitX=0.5;exitY=0;exitDx=0;exitDy=0;entryX=0;entryY=0.5;entryDx=0;entryDy=0;elbow=vertical;edgeStyle=orthogonalEdgeStyle;" parent="1" source="iZyHk9PSECfGhulARrNF-1" target="8NqDNcjnTglQHzUcswUO-7" edge="1">
          <mxGeometry width="50" height="50" relative="1" as="geometry">
            <mxPoint x="430" y="450" as="sourcePoint" />
            <mxPoint x="480" y="400" as="targetPoint" />
          </mxGeometry>
        </mxCell>
        <mxCell id="iZyHk9PSECfGhulARrNF-6" value="" style="endArrow=none;html=1;rounded=0;exitX=0.5;exitY=1;exitDx=0;exitDy=0;entryX=0;entryY=0.5;entryDx=0;entryDy=0;edgeStyle=orthogonalEdgeStyle;" parent="1" source="iZyHk9PSECfGhulARrNF-1" target="8NqDNcjnTglQHzUcswUO-5" edge="1">
          <mxGeometry width="50" height="50" relative="1" as="geometry">
            <mxPoint x="500" y="330" as="sourcePoint" />
            <mxPoint x="560" y="355" as="targetPoint" />
          </mxGeometry>
        </mxCell>
      </root>
    </mxGraphModel>
  </diagram>
</mxfile>
